{
  "asset": {
    "generator": "glTF-Transform v4.5.0",
    "version": "2.0"
  },
  "accessors": [
    {
      "type": "SCALAR",
      "componentType": 5123,
      "count": 9432,
      "normalized": false,
      "byteOffset": 0,
      "bufferView": 0
    },
    {
      "type": "VEC3",
      "componentType": 5126,
      "count": 2145,
      "normalized": false,
      "byteOffset": 0,
      "bufferView": 1
    },
    {
      "type": "VEC3",
      "componentType": 5120,
      "count": 2145,
      "normalized": true,
      "byteOffset": 0,
      "bufferView": 2
    },
    {
      "type": "VEC2",
      "componentType": 5126,
      "count": 2145,
      "normalized": false,
      "byteOffset": 0,
      "bufferView": 3
    },
    {
      "type": "SCALAR",
      "componentType": 5123,
      "count": 6324,
      "normalized": false,
      "byteOffset": 18864,
      "bufferView": 0
    },
    {
      "type": "VEC3",
      "componentType": 5126,
      "count": 1490,
      "normalized": false,
      "byteOffset": 25740,
      "bufferView": 1
    },
    {
      "type": "VEC3",
      "componentType": 5120,
      "count": 1490,
      "normalized": true,
      "byteOffset": 0,
      "bufferView": 4
    },
    {
      "type": "VEC2",
      "componentType": 5126,
      "count": 1490,
      "normalized": false,
      "byteOffset": 17160,
      "bufferView": 3
    },
    {
      "type": "SCALAR",
      "componentType": 5123,
      "count": 15162,
      "normalized": false,
      "byteOffset": 31512,
      "bufferView": 0
    },
    {
      "type": "VEC3",
      "componentType": 5126,
      "count": 3489,
      "normalized": false,
      "byteOffset": 43620,
      "bufferView": 1
    },
    {
      "type": "VEC3",
      "componentType": 5120,
      "count": 3489,
      "normalized": true,
      "byteOffset": 0,
      "bufferView": 5
    },
    {
      "type": "VEC2",
      "componentType": 5126,
      "count": 3489,
      "normalized": false,
      "byteOffset": 29080,
      "bufferView": 3
    },
    {
      "type": "VEC3",
      "componentType": 5122,
      "count": 2145,
      "max": [
        12777,
        32767,
        3096
      ],
      "min": [
        -12777,
        -32767,
        -3096
      ],
      "normalized": true,
      "byteOffset": 0,
      "bufferView": 6
    },
    {
      "type": "VEC2",
      "componentType": 5123,
      "count": 2145,
      "normalized": true,
      "byteOffset": 0,
      "bufferView": 7
    },
    {
      "type": "VEC3",
      "componentType": 5122,
      "count": 1490,
      "max": [
        12769,
        32767,
        3028
      ],
      "min": [
        -12769,
        -32767,
        -3028
      ],
      "normalized": true,
      "byteOffset": 0,
      "bufferView": 8
    },
    {
      "type": "VEC2",
      "componentType": 5123,
      "count": 1490,
      "normalized": true,
      "byteOffset": 0,
      "bufferView": 9
    },
    {
      "type": "VEC3",
      "componentType": 5122,
      "count": 3489,
      "max": [
        13993,
        32767,
        1820
      ],
      "min": [
        -13993,
        -32767,
        -1820
      ],
      "normalized": true,
      "byteOffset": 0,
      "bufferView": 10
    },
    {
      "type": "VEC2",
      "componentType": 5123,
      "count": 3489,
      "normalized": true,
      "byteOffset": 0,
      "bufferView": 11
    }
  ],
  "bufferViews": [
    {
      "buffer": 1,
      "byteOffset": 0,
      "byteLength": 61836,
      "target": 34963,
      "extensions": {
        "EXT_meshopt_compression": {
          "buffer": 0,
          "byteOffset": 0,
          "byteLength": 11647,
          "mode": "TRIANGLES",
          "byteStride": 2,
          "count": 30918
        }
      }
    },
    {
      "buffer": 1,
      "byteOffset": 61836,
      "byteLength": 85488,
      "extensions": {
        "EXT_meshopt_compression": {
          "buffer": 0,
          "byteOffset": 11648,
          "byteLength": 58576,
          "mode": "ATTRIBUTES",
          "byteStride": 12,
          "count": 7124
        }
      }
    },
    {
      "buffer": 1,
      "byteOffset": 147324,
      "byteLength": 8580,
      "target": 34962,
      "byteStride": 4,
      "extensions": {
        "EXT_meshopt_compression": {
          "buffer": 0,
          "byteOffset": 70224,
          "byteLength": 4563,
          "mode": "ATTRIBUTES",
          "byteStride": 4,
          "count": 2145
        }
      }
    },
    {
      "buffer": 1,
      "byteOffset": 155904,
      "byteLength": 56992,
      "extensions": {
        "EXT_meshopt_compression": {
          "buffer": 0,
          "byteOffset": 74788,
          "byteLength": 39403,
          "mode": "ATTRIBUTES",
          "byteStride": 8,
          "count": 7124
        }
      }
    },
    {
      "buffer": 1,
      "byteOffset": 212896,
      "byteLength": 5960,
      "target": 34962,
      "byteStride": 4,
      "extensions": {
        "EXT_meshopt_compression": {
          "buffer": 0,
          "byteOffset": 114192,
          "byteLength": 3903,
          "mode": "ATTRIBUTES",
          "byteStride": 4,
          "count": 1490
        }
      }
    },
    {
      "buffer": 1,
      "byteOffset": 218856,
      "byteLength": 13956,
      "target": 34962,
      "byteStride": 4,
      "extensions": {
        "EXT_meshopt_compression": {
          "buffer": 0,
          "byteOffset": 118096,
          "byteLength": 9690,
          "mode": "ATTRIBUTES",
          "byteStride": 4,
          "count": 3489
        }
      }
    },
    {
      "buffer": 1,
      "byteOffset": 232812,
      "byteLength": 17160,
      "target": 34962,
      "byteStride": 8,
      "extensions": {
        "EXT_meshopt_compression": {
          "buffer": 0,
          "byteOffset": 127788,
          "byteLength": 9734,
          "mode": "ATTRIBUTES",
          "byteStride": 8,
          "count": 2145
        }
      }
    },
    {
      "buffer": 1,
      "byteOffset": 249972,
      "byteLength": 8580,
      "target": 34962,
      "byteStride": 4,
      "extensions": {
        "EXT_meshopt_compression": {
          "buffer": 0,
          "byteOffset": 137524,
          "byteLength": 6696,
          "mode": "ATTRIBUTES",
          "byteStride": 4,
          "count": 2145
        }
      }
    },
    {
      "buffer": 1,
      "byteOffset": 258552,
      "byteLength": 11920,
      "target": 34962,
      "byteStride": 8,
      "extensions": {
        "EXT_meshopt_compression": {
          "buffer": 0,
          "byteOffset": 144220,
          "byteLength": 6912,
          "mode": "ATTRIBUTES",
          "byteStride": 8,
          "count": 1490
        }
      }
    },
    {
      "buffer": 1,
      "byteOffset": 270472,
      "byteLength": 5960,
      "target": 34962,
      "byteStride": 4,
      "extensions": {
        "EXT_meshopt_compression": {
          "buffer": 0,
          "byteOffset": 151132,
          "byteLength": 4905,
          "mode": "ATTRIBUTES",
          "byteStride": 4,
          "count": 1490
        }
      }
    },
    {
      "buffer": 1,
      "byteOffset": 276432,
      "byteLength": 27912,
      "target": 34962,
      "byteStride": 8,
      "extensions": {
        "EXT_meshopt_compression": {
          "buffer": 0,
          "byteOffset": 156040,
          "byteLength": 13859,
          "mode": "ATTRIBUTES",
          "byteStride": 8,
          "count": 3489
        }
      }
    },
    {
      "buffer": 1,
      "byteOffset": 304344,
      "byteLength": 13956,
      "target": 34962,
      "byteStride": 4,
      "extensions": {
        "EXT_meshopt_compression": {
          "buffer": 0,
          "byteOffset": 169900,
          "byteLength": 9866,
          "mode": "ATTRIBUTES",
          "byteStride": 4,
          "count": 3489
        }
      }
    }
  ],
  "samplers": [
    {
      "magFilter": 9729,
      "minFilter": 9987,
      "wrapS": 10497,
      "wrapT": 10497
    }
  ],
  "textures": [
    {
      "sampler": 0,
      "extensions": {
        "KHR_texture_basisu": {
          "source": 1
        }
      }
    },
    {
      "sampler": 0,
      "extensions": {
        "KHR_texture_basisu": {
          "source": 0
        }
      }
    },
    {
      "sampler": 0,
      "extensions": {
        "KHR_texture_basisu": {
          "source": 2
        }
      }
    },
    {
      "sampler": 0,
      "extensions": {
        "KHR_texture_basisu": {
          "source": 4
        }
      }
    },
    {
      "sampler": 0,
      "extensions": {
        "KHR_texture_basisu": {
          "source": 3
        }
      }
    },
    {
      "sampler": 0,
      "extensions": {
        "KHR_texture_basisu": {
          "source": 5
        }
      }
    }
  ],
  "images": [
    {
      "name": "kite_shield_body_nor_gl",
      "mimeType": "image/ktx2",
      "uri": "textures/kite_shield_body_nor_gl_1k.ktx2"
    },
    {
      "name": "kite_shield_body_diff",
      "mimeType": "image/ktx2",
      "uri": "textures/kite_shield_body_diff_1k.ktx2"
    },
    {
      "name": "kite_shield_body_metal-kite_shield_body_rough",
      "mimeType": "image/ktx2",
      "uri": "textures/kite_shield_body_arm_1k.ktx2"
    },
    {
      "name": "kite_shield_clamps_trim_nor_gl",
      "mimeType": "image/ktx2",
      "uri": "textures/kite_shield_clamps_trim_nor_gl_1k.ktx2"
    },
    {
      "name": "kite_shield_clamps_trim_diff",
      "mimeType": "image/ktx2",
      "uri": "textures/kite_shield_clamps_trim_diff_1k.ktx2"
    },
    {
      "name": "kite_shield_clamps_trim_metal-kite_shield_clamps_trim_rough",
      "mimeType": "image/ktx2",
      "uri": "textures/kite_shield_clamps_trim_arm_1k.ktx2"
    }
  ],
  "buffers": [
    {
      "uri": "kite_shield.bin",
      "byteLength": 179768
    },
    {
      "byteLength": 318300,
      "extensions": {
        "EXT_meshopt_compression": {
          "fallback": true
        }
      }
    }
  ],
  "materials": [
    {
      "name": "kite_shield_body",
      "doubleSided": true,
      "pbrMetallicRoughness": {
        "baseColorTexture": {
          "index": 0
        },
        "metallicRoughnessTexture": {
          "index": 2
        }
      },
      "normalTexture": {
        "index": 1
      }
    },
    {
      "name": "kite_shield_clamps_and_trim",
      "doubleSided": true,
      "pbrMetallicRoughness": {
        "baseColorTexture": {
          "index": 3
        },
        "metallicRoughnessTexture": {
          "index": 5
        }
      },
      "normalTexture": {
        "index": 4
      }
    }
  ],
  "meshes": [
    {
      "name": "Plane",
      "primitives": [
        {
          "attributes": {
            "NORMAL": 2,
            "POSITION": 12,
            "TEXCOORD_0": 13
          },
          "mode": 4,
          "material": 0,
          "indices": 0
        }
      ]
    },
    {
      "name": "Plane.016",
      "primitives": [
        {
          "attributes": {
            "NORMAL": 6,
            "POSITION": 14,
            "TEXCOORD_0": 15
          },
          "mode": 4,
          "material": 1,
          "indices": 4
        }
      ]
    },
    {
      "name": "Plane.020",
      "primitives": [
        {
          "attributes": {
            "NORMAL": 10,
            "POSITION": 16,
            "TEXCOORD_0": 17
          },
          "mode": 4,
          "material": 1,
          "indices": 8
        }
      ]
    }
  ],
  "nodes": [
    {
      "name": "kite_shield_body",
      "translation": [
        0,
        -0.04105040431022644,
        0.012205278500914574
      ],
      "scale": [
        0.6825325191020966,
        0.6825325191020966,
        0.6825325191020966
      ],
      "mesh": 0
    },
    {
      "name": "kite_shield_metal_trim",
      "translation": [
        -1.4901161193847656e-8,
        -0.04951143264770508,
        0.018023811280727386
      ],
      "scale": [
        0.6970667839050293,
        0.6970667839050293,
        0.6970667839050293
      ],
      "mesh": 1
    },
    {
      "name": "kite_shield_clamps_and_bolts",
      "translation": [
        0,
        -0.11205213516950607,
        -0.014048803597688675
      ],
      "scale": [
        0.6104062125086784,
        0.6104062125086784,
        0.6104062125086784
      ],
      "mesh": 2
    }
  ],
  "scenes": [
    {
      "name": "Scene",
      "nodes": [
        0,
        1,
        2
      ]
    }
  ],
  "scene": 0,
  "extensionsUsed": [
    "EXT_meshopt_compression",
    "KHR_mesh_quantization",
    "KHR_texture_basisu"
  ],
  "extensionsRequired": [
    "EXT_meshopt_compression",
    "KHR_mesh_quantization",
    "KHR_texture_basisu"
  ]
}