{
  "asset": {
    "generator": "glTF-Transform v4.5.0",
    "version": "2.0"
  },
  "accessors": [
    {
      "type": "SCALAR",
      "componentType": 5123,
      "count": 16749,
      "normalized": false,
      "byteOffset": 0,
      "bufferView": 0
    },
    {
      "type": "VEC3",
      "componentType": 5126,
      "count": 4580,
      "normalized": false,
      "byteOffset": 0,
      "bufferView": 1
    },
    {
      "type": "VEC3",
      "componentType": 5120,
      "count": 4580,
      "normalized": true,
      "byteOffset": 0,
      "bufferView": 2
    },
    {
      "type": "VEC2",
      "componentType": 5126,
      "count": 4580,
      "normalized": false,
      "byteOffset": 0,
      "bufferView": 3
    },
    {
      "type": "SCALAR",
      "componentType": 5123,
      "count": 108,
      "normalized": false,
      "byteOffset": 33498,
      "bufferView": 0
    },
    {
      "type": "VEC3",
      "componentType": 5126,
      "count": 72,
      "normalized": false,
      "byteOffset": 54960,
      "bufferView": 1
    },
    {
      "type": "VEC3",
      "componentType": 5120,
      "count": 72,
      "normalized": true,
      "byteOffset": 0,
      "bufferView": 4
    },
    {
      "type": "VEC2",
      "componentType": 5126,
      "count": 72,
      "normalized": false,
      "byteOffset": 36640,
      "bufferView": 3
    },
    {
      "type": "SCALAR",
      "componentType": 5123,
      "count": 6126,
      "normalized": false,
      "byteOffset": 33714,
      "bufferView": 0
    },
    {
      "type": "VEC3",
      "componentType": 5126,
      "count": 1718,
      "normalized": false,
      "byteOffset": 55824,
      "bufferView": 1
    },
    {
      "type": "VEC3",
      "componentType": 5120,
      "count": 1718,
      "normalized": true,
      "byteOffset": 0,
      "bufferView": 5
    },
    {
      "type": "VEC2",
      "componentType": 5126,
      "count": 1718,
      "normalized": false,
      "byteOffset": 37216,
      "bufferView": 3
    },
    {
      "type": "SCALAR",
      "componentType": 5123,
      "count": 36,
      "normalized": false,
      "byteOffset": 45966,
      "bufferView": 0
    },
    {
      "type": "VEC3",
      "componentType": 5126,
      "count": 24,
      "normalized": false,
      "byteOffset": 76440,
      "bufferView": 1
    },
    {
      "type": "VEC3",
      "componentType": 5120,
      "count": 24,
      "normalized": true,
      "byteOffset": 0,
      "bufferView": 6
    },
    {
      "type": "VEC2",
      "componentType": 5126,
      "count": 24,
      "normalized": false,
      "byteOffset": 50960,
      "bufferView": 3
    },
    {
      "type": "SCALAR",
      "componentType": 5123,
      "count": 1944,
      "normalized": false,
      "byteOffset": 46038,
      "bufferView": 0
    },
    {
      "type": "VEC3",
      "componentType": 5126,
      "count": 425,
      "normalized": false,
      "byteOffset": 76728,
      "bufferView": 1
    },
    {
      "type": "VEC3",
      "componentType": 5120,
      "count": 425,
      "normalized": true,
      "byteOffset": 0,
      "bufferView": 7
    },
    {
      "type": "VEC2",
      "componentType": 5126,
      "count": 425,
      "normalized": false,
      "byteOffset": 51152,
      "bufferView": 3
    },
    {
      "type": "VEC3",
      "componentType": 5122,
      "count": 4580,
      "max": [
        17918,
        32767,
        17914
      ],
      "min": [
        -17918,
        -32767,
        -17914
      ],
      "normalized": true,
      "byteOffset": 0,
      "bufferView": 8
    },
    {
      "type": "VEC2",
      "componentType": 5123,
      "count": 4580,
      "normalized": true,
      "byteOffset": 0,
      "bufferView": 9
    },
    {
      "type": "VEC3",
      "componentType": 5122,
      "count": 72,
      "max": [
        14585,
        16842,
        11977
      ],
      "min": [
        -14241,
        -22210,
        -14241
      ],
      "normalized": true,
      "byteOffset": 0,
      "bufferView": 10
    },
    {
      "type": "VEC2",
      "componentType": 5123,
      "count": 72,
      "normalized": true,
      "byteOffset": 0,
      "bufferView": 11
    },
    {
      "type": "VEC3",
      "componentType": 5122,
      "count": 1718,
      "max": [
        15233,
        32767,
        5088
      ],
      "min": [
        -15233,
        -32767,
        -5088
      ],
      "normalized": true,
      "byteOffset": 0,
      "bufferView": 12
    },
    {
      "type": "VEC2",
      "componentType": 5123,
      "count": 1718,
      "normalized": true,
      "byteOffset": 0,
      "bufferView": 13
    },
    {
      "type": "VEC3",
      "componentType": 5122,
      "count": 24,
      "max": [
        8233,
        25883,
        -2056
      ],
      "min": [
        -8201,
        -24258,
        -2552
      ],
      "normalized": true,
      "byteOffset": 0,
      "bufferView": 14
    },
    {
      "type": "VEC2",
      "componentType": 5123,
      "count": 24,
      "normalized": true,
      "byteOffset": 0,
      "bufferView": 15
    },
    {
      "type": "VEC3",
      "componentType": 5122,
      "count": 425,
      "max": [
        32767,
        31831,
        2424
      ],
      "min": [
        -32767,
        -31831,
        -2424
      ],
      "normalized": true,
      "byteOffset": 0,
      "bufferView": 16
    },
    {
      "type": "VEC2",
      "componentType": 5123,
      "count": 425,
      "normalized": true,
      "byteOffset": 0,
      "bufferView": 17
    }
  ],
  "bufferViews": [
    {
      "buffer": 1,
      "byteOffset": 0,
      "byteLength": 49926,
      "target": 34963,
      "extensions": {
        "EXT_meshopt_compression": {
          "buffer": 0,
          "byteOffset": 0,
          "byteLength": 9077,
          "mode": "TRIANGLES",
          "byteStride": 2,
          "count": 24963
        }
      }
    },
    {
      "buffer": 1,
      "byteOffset": 49928,
      "byteLength": 81828,
      "extensions": {
        "EXT_meshopt_compression": {
          "buffer": 0,
          "byteOffset": 9080,
          "byteLength": 62688,
          "mode": "ATTRIBUTES",
          "byteStride": 12,
          "count": 6819
        }
      }
    },
    {
      "buffer": 1,
      "byteOffset": 131756,
      "byteLength": 18320,
      "target": 34962,
      "byteStride": 4,
      "extensions": {
        "EXT_meshopt_compression": {
          "buffer": 0,
          "byteOffset": 71768,
          "byteLength": 12324,
          "mode": "ATTRIBUTES",
          "byteStride": 4,
          "count": 4580
        }
      }
    },
    {
      "buffer": 1,
      "byteOffset": 150076,
      "byteLength": 54552,
      "extensions": {
        "EXT_meshopt_compression": {
          "buffer": 0,
          "byteOffset": 84092,
          "byteLength": 38111,
          "mode": "ATTRIBUTES",
          "byteStride": 8,
          "count": 6819
        }
      }
    },
    {
      "buffer": 1,
      "byteOffset": 204628,
      "byteLength": 288,
      "target": 34962,
      "byteStride": 4,
      "extensions": {
        "EXT_meshopt_compression": {
          "buffer": 0,
          "byteOffset": 122204,
          "byteLength": 130,
          "mode": "ATTRIBUTES",
          "byteStride": 4,
          "count": 72
        }
      }
    },
    {
      "buffer": 1,
      "byteOffset": 204916,
      "byteLength": 6872,
      "target": 34962,
      "byteStride": 4,
      "extensions": {
        "EXT_meshopt_compression": {
          "buffer": 0,
          "byteOffset": 122336,
          "byteLength": 4895,
          "mode": "ATTRIBUTES",
          "byteStride": 4,
          "count": 1718
        }
      }
    },
    {
      "buffer": 1,
      "byteOffset": 211788,
      "byteLength": 96,
      "target": 34962,
      "byteStride": 4,
      "extensions": {
        "EXT_meshopt_compression": {
          "buffer": 0,
          "byteOffset": 127232,
          "byteLength": 62,
          "mode": "ATTRIBUTES",
          "byteStride": 4,
          "count": 24
        }
      }
    },
    {
      "buffer": 1,
      "byteOffset": 211884,
      "byteLength": 1700,
      "target": 34962,
      "byteStride": 4,
      "extensions": {
        "EXT_meshopt_compression": {
          "buffer": 0,
          "byteOffset": 127296,
          "byteLength": 1328,
          "mode": "ATTRIBUTES",
          "byteStride": 4,
          "count": 425
        }
      }
    },
    {
      "buffer": 1,
      "byteOffset": 213584,
      "byteLength": 36640,
      "target": 34962,
      "byteStride": 8,
      "extensions": {
        "EXT_meshopt_compression": {
          "buffer": 0,
          "byteOffset": 128624,
          "byteLength": 21978,
          "mode": "ATTRIBUTES",
          "byteStride": 8,
          "count": 4580
        }
      }
    },
    {
      "buffer": 1,
      "byteOffset": 250224,
      "byteLength": 18320,
      "target": 34962,
      "byteStride": 4,
      "extensions": {
        "EXT_meshopt_compression": {
          "buffer": 0,
          "byteOffset": 150604,
          "byteLength": 14484,
          "mode": "ATTRIBUTES",
          "byteStride": 4,
          "count": 4580
        }
      }
    },
    {
      "buffer": 1,
      "byteOffset": 268544,
      "byteLength": 576,
      "target": 34962,
      "byteStride": 8,
      "extensions": {
        "EXT_meshopt_compression": {
          "buffer": 0,
          "byteOffset": 165088,
          "byteLength": 366,
          "mode": "ATTRIBUTES",
          "byteStride": 8,
          "count": 72
        }
      }
    },
    {
      "buffer": 1,
      "byteOffset": 269120,
      "byteLength": 288,
      "target": 34962,
      "byteStride": 4,
      "extensions": {
        "EXT_meshopt_compression": {
          "buffer": 0,
          "byteOffset": 165456,
          "byteLength": 286,
          "mode": "ATTRIBUTES",
          "byteStride": 4,
          "count": 72
        }
      }
    },
    {
      "buffer": 1,
      "byteOffset": 269408,
      "byteLength": 13744,
      "target": 34962,
      "byteStride": 8,
      "extensions": {
        "EXT_meshopt_compression": {
          "buffer": 0,
          "byteOffset": 165744,
          "byteLength": 8088,
          "mode": "ATTRIBUTES",
          "byteStride": 8,
          "count": 1718
        }
      }
    },
    {
      "buffer": 1,
      "byteOffset": 283152,
      "byteLength": 6872,
      "target": 34962,
      "byteStride": 4,
      "extensions": {
        "EXT_meshopt_compression": {
          "buffer": 0,
          "byteOffset": 173832,
          "byteLength": 5112,
          "mode": "ATTRIBUTES",
          "byteStride": 4,
          "count": 1718
        }
      }
    },
    {
      "buffer": 1,
      "byteOffset": 290024,
      "byteLength": 192,
      "target": 34962,
      "byteStride": 8,
      "extensions": {
        "EXT_meshopt_compression": {
          "buffer": 0,
          "byteOffset": 178944,
          "byteLength": 126,
          "mode": "ATTRIBUTES",
          "byteStride": 8,
          "count": 24
        }
      }
    },
    {
      "buffer": 1,
      "byteOffset": 290216,
      "byteLength": 96,
      "target": 34962,
      "byteStride": 4,
      "extensions": {
        "EXT_meshopt_compression": {
          "buffer": 0,
          "byteOffset": 179072,
          "byteLength": 120,
          "mode": "ATTRIBUTES",
          "byteStride": 4,
          "count": 24
        }
      }
    },
    {
      "buffer": 1,
      "byteOffset": 290312,
      "byteLength": 3400,
      "target": 34962,
      "byteStride": 8,
      "extensions": {
        "EXT_meshopt_compression": {
          "buffer": 0,
          "byteOffset": 179192,
          "byteLength": 2147,
          "mode": "ATTRIBUTES",
          "byteStride": 8,
          "count": 425
        }
      }
    },
    {
      "buffer": 1,
      "byteOffset": 293712,
      "byteLength": 1700,
      "target": 34962,
      "byteStride": 4,
      "extensions": {
        "EXT_meshopt_compression": {
          "buffer": 0,
          "byteOffset": 181340,
          "byteLength": 1117,
          "mode": "ATTRIBUTES",
          "byteStride": 4,
          "count": 425
        }
      }
    }
  ],
  "samplers": [
    {
      "magFilter": 9729,
      "minFilter": 9987,
      "wrapS": 10497,
      "wrapT": 10497
    }
  ],
  "textures": [
    {
      "sampler": 0,
      "extensions": {
        "KHR_texture_basisu": {
          "source": 1
        }
      }
    },
    {
      "sampler": 0,
      "extensions": {
        "KHR_texture_basisu": {
          "source": 0
        }
      }
    },
    {
      "sampler": 0,
      "extensions": {
        "KHR_texture_basisu": {
          "source": 2
        }
      }
    },
    {
      "sampler": 0,
      "extensions": {
        "KHR_texture_basisu": {
          "source": 4
        }
      }
    },
    {
      "sampler": 0,
      "extensions": {
        "KHR_texture_basisu": {
          "source": 3
        }
      }
    },
    {
      "sampler": 0,
      "extensions": {
        "KHR_texture_basisu": {
          "source": 5
        }
      }
    }
  ],
  "images": [
    {
      "name": "wooden_lantern_01_nor_gl",
      "mimeType": "image/ktx2",
      "uri": "textures/wooden_lantern_01_nor_gl_1k.ktx2"
    },
    {
      "name": "wooden_lantern_01_diff",
      "mimeType": "image/ktx2",
      "uri": "textures/wooden_lantern_01_diff_1k.ktx2"
    },
    {
      "name": "wooden_lantern_01_metal-wooden_lantern_01_rough",
      "mimeType": "image/ktx2",
      "uri": "textures/wooden_lantern_01_arm_1k.ktx2"
    },
    {
      "name": "wooden_lantern_01_glass_nor_gl",
      "mimeType": "image/ktx2",
      "uri": "textures/wooden_lantern_01_glass_nor_gl_1k.ktx2"
    },
    {
      "name": "wooden_lantern_01_glass_diff-wooden_lantern_01_glass_opacity",
      "mimeType": "image/ktx2",
      "uri": "textures/wooden_lantern_01_glass_diff_1k.ktx2"
    },
    {
      "name": "wooden_lantern_01_glass_metal-wooden_lantern_01_glass_rough",
      "mimeType": "image/ktx2",
      "uri": "textures/wooden_lantern_01_glass_arm_1k.ktx2"
    }
  ],
  "buffers": [
    {
      "uri": "wooden_lantern_01.bin",
      "byteLength": 182460
    },
    {
      "byteLength": 295412,
      "extensions": {
        "EXT_meshopt_compression": {
          "fallback": true
        }
      }
    }
  ],
  "materials": [
    {
      "name": "wooden_lantern_01",
      "doubleSided": true,
      "pbrMetallicRoughness": {
        "baseColorTexture": {
          "index": 0
        },
        "metallicRoughnessTexture": {
          "index": 2
        }
      },
      "normalTexture": {
        "index": 1
      }
    },
    {
      "name": "wooden_lantern_01_glass",
      "alphaMode": "BLEND",
      "doubleSided": true,
      "pbrMetallicRoughness": {
        "baseColorTexture": {
          "index": 3
        },
        "metallicRoughnessTexture": {
          "index": 5
        }
      },
      "normalTexture": {
        "index": 4
      }
    }
  ],
  "meshes": [
    {
      "name": "Cube.001",
      "primitives": [
        {
          "attributes": {
            "NORMAL": 2,
            "POSITION": 20,
            "TEXCOORD_0": 21
          },
          "mode": 4,
          "material": 0,
          "indices": 0
        },
        {
          "attributes": {
            "NORMAL": 6,
            "POSITION": 22,
            "TEXCOORD_0": 23
          },
          "mode": 4,
          "material": 1,
          "indices": 4
        }
      ]
    },
    {
      "name": "Cube.004",
      "primitives": [
        {
          "attributes": {
            "NORMAL": 10,
            "POSITION": 24,
            "TEXCOORD_0": 25
          },
          "mode": 4,
          "material": 0,
          "indices": 8
        },
        {
          "attributes": {
            "NORMAL": 14,
            "POSITION": 26,
            "TEXCOORD_0": 27
          },
          "mode": 4,
          "material": 1,
          "indices": 12
        }
      ]
    },
    {
      "name": "Cylinder.031",
      "primitives": [
        {
          "attributes": {
            "NORMAL": 18,
            "POSITION": 28,
            "TEXCOORD_0": 29
          },
          "mode": 4,
          "material": 0,
          "indices": 16
        }
      ]
    }
  ],
  "nodes": [
    {
      "name": "wooden_lantern_01",
      "translation": [
        0.0000069998204708099365,
        0.1907634682720527,
        -0.00003125891089439392
      ],
      "scale": [
        0.20213857293128967,
        0.20213857293128967,
        0.20213857293128967
      ],
      "mesh": 0
    },
    {
      "name": "wooden_lantern_01_door",
      "translation": [
        0.00006279721856117249,
        0.17132969945669174,
        0.10005743848159909
      ],
      "scale": [
        0.1553288772702217,
        0.1553288772702217,
        0.1553288772702217
      ],
      "mesh": 1
    },
    {
      "name": "wooden_lantern_01_handle",
      "translation": [
        0.0015707351303717587,
        0.4324398599565029,
        -0.0021618446335196495
      ],
      "scale": [
        0.0888584591448307,
        0.0888584591448307,
        0.0888584591448307
      ],
      "mesh": 2
    }
  ],
  "scenes": [
    {
      "name": "Scene",
      "nodes": [
        0,
        1,
        2
      ]
    }
  ],
  "scene": 0,
  "extensionsUsed": [
    "EXT_meshopt_compression",
    "KHR_mesh_quantization",
    "KHR_texture_basisu"
  ],
  "extensionsRequired": [
    "EXT_meshopt_compression",
    "KHR_mesh_quantization",
    "KHR_texture_basisu"
  ]
}