{
  "asset": {
    "generator": "glTF-Transform v4.5.0",
    "version": "2.0"
  },
  "accessors": [
    {
      "type": "SCALAR",
      "componentType": 5123,
      "count": 4554,
      "normalized": false,
      "byteOffset": 0,
      "bufferView": 0
    },
    {
      "type": "VEC3",
      "componentType": 5126,
      "count": 1760,
      "normalized": false,
      "byteOffset": 0,
      "bufferView": 1
    },
    {
      "type": "VEC3",
      "componentType": 5120,
      "count": 1760,
      "normalized": true,
      "byteOffset": 0,
      "bufferView": 2
    },
    {
      "type": "VEC2",
      "componentType": 5126,
      "count": 1760,
      "normalized": false,
      "byteOffset": 0,
      "bufferView": 3
    },
    {
      "type": "SCALAR",
      "componentType": 5123,
      "count": 1884,
      "normalized": false,
      "byteOffset": 9108,
      "bufferView": 0
    },
    {
      "type": "VEC3",
      "componentType": 5126,
      "count": 458,
      "normalized": false,
      "byteOffset": 21120,
      "bufferView": 1
    },
    {
      "type": "VEC3",
      "componentType": 5120,
      "count": 458,
      "normalized": true,
      "byteOffset": 0,
      "bufferView": 4
    },
    {
      "type": "VEC2",
      "componentType": 5126,
      "count": 458,
      "normalized": false,
      "byteOffset": 14080,
      "bufferView": 3
    },
    {
      "type": "SCALAR",
      "componentType": 5123,
      "count": 1884,
      "normalized": false,
      "byteOffset": 12876,
      "bufferView": 0
    },
    {
      "type": "VEC3",
      "componentType": 5126,
      "count": 458,
      "normalized": false,
      "byteOffset": 26616,
      "bufferView": 1
    },
    {
      "type": "VEC3",
      "componentType": 5120,
      "count": 458,
      "normalized": true,
      "byteOffset": 0,
      "bufferView": 5
    },
    {
      "type": "VEC2",
      "componentType": 5126,
      "count": 458,
      "normalized": false,
      "byteOffset": 17744,
      "bufferView": 3
    },
    {
      "type": "SCALAR",
      "componentType": 5123,
      "count": 3369,
      "normalized": false,
      "byteOffset": 16644,
      "bufferView": 0
    },
    {
      "type": "VEC3",
      "componentType": 5126,
      "count": 819,
      "normalized": false,
      "byteOffset": 32112,
      "bufferView": 1
    },
    {
      "type": "VEC3",
      "componentType": 5120,
      "count": 819,
      "normalized": true,
      "byteOffset": 0,
      "bufferView": 6
    },
    {
      "type": "VEC2",
      "componentType": 5126,
      "count": 819,
      "normalized": false,
      "byteOffset": 21408,
      "bufferView": 3
    },
    {
      "type": "VEC3",
      "componentType": 5122,
      "count": 1760,
      "max": [
        32479,
        32767,
        15697
      ],
      "min": [
        -32479,
        -32767,
        -15697
      ],
      "normalized": true,
      "byteOffset": 0,
      "bufferView": 7
    },
    {
      "type": "VEC2",
      "componentType": 5123,
      "count": 1760,
      "normalized": true,
      "byteOffset": 0,
      "bufferView": 8
    },
    {
      "type": "VEC3",
      "componentType": 5122,
      "count": 458,
      "max": [
        32767,
        8393,
        18018
      ],
      "min": [
        -32767,
        -8393,
        -18018
      ],
      "normalized": true,
      "byteOffset": 0,
      "bufferView": 9
    },
    {
      "type": "VEC2",
      "componentType": 5123,
      "count": 458,
      "normalized": true,
      "byteOffset": 0,
      "bufferView": 10
    },
    {
      "type": "VEC3",
      "componentType": 5122,
      "count": 458,
      "max": [
        32767,
        8393,
        18002
      ],
      "min": [
        -32767,
        -8393,
        -18002
      ],
      "normalized": true,
      "byteOffset": 0,
      "bufferView": 11
    },
    {
      "type": "VEC2",
      "componentType": 5123,
      "count": 458,
      "normalized": true,
      "byteOffset": 0,
      "bufferView": 12
    },
    {
      "type": "VEC3",
      "componentType": 5122,
      "count": 819,
      "max": [
        32767,
        8393,
        17686
      ],
      "min": [
        -32767,
        -8393,
        -17686
      ],
      "normalized": true,
      "byteOffset": 0,
      "bufferView": 13
    },
    {
      "type": "VEC2",
      "componentType": 5123,
      "count": 819,
      "normalized": true,
      "byteOffset": 0,
      "bufferView": 14
    }
  ],
  "bufferViews": [
    {
      "buffer": 1,
      "byteOffset": 0,
      "byteLength": 23382,
      "target": 34963,
      "extensions": {
        "EXT_meshopt_compression": {
          "buffer": 0,
          "byteOffset": 0,
          "byteLength": 4211,
          "mode": "TRIANGLES",
          "byteStride": 2,
          "count": 11691
        }
      }
    },
    {
      "buffer": 1,
      "byteOffset": 23384,
      "byteLength": 41940,
      "extensions": {
        "EXT_meshopt_compression": {
          "buffer": 0,
          "byteOffset": 4212,
          "byteLength": 30514,
          "mode": "ATTRIBUTES",
          "byteStride": 12,
          "count": 3495
        }
      }
    },
    {
      "buffer": 1,
      "byteOffset": 65324,
      "byteLength": 7040,
      "target": 34962,
      "byteStride": 4,
      "extensions": {
        "EXT_meshopt_compression": {
          "buffer": 0,
          "byteOffset": 34728,
          "byteLength": 3443,
          "mode": "ATTRIBUTES",
          "byteStride": 4,
          "count": 1760
        }
      }
    },
    {
      "buffer": 1,
      "byteOffset": 72364,
      "byteLength": 27960,
      "extensions": {
        "EXT_meshopt_compression": {
          "buffer": 0,
          "byteOffset": 38172,
          "byteLength": 20439,
          "mode": "ATTRIBUTES",
          "byteStride": 8,
          "count": 3495
        }
      }
    },
    {
      "buffer": 1,
      "byteOffset": 100324,
      "byteLength": 1832,
      "target": 34962,
      "byteStride": 4,
      "extensions": {
        "EXT_meshopt_compression": {
          "buffer": 0,
          "byteOffset": 58612,
          "byteLength": 1254,
          "mode": "ATTRIBUTES",
          "byteStride": 4,
          "count": 458
        }
      }
    },
    {
      "buffer": 1,
      "byteOffset": 102156,
      "byteLength": 1832,
      "target": 34962,
      "byteStride": 4,
      "extensions": {
        "EXT_meshopt_compression": {
          "buffer": 0,
          "byteOffset": 59868,
          "byteLength": 1254,
          "mode": "ATTRIBUTES",
          "byteStride": 4,
          "count": 458
        }
      }
    },
    {
      "buffer": 1,
      "byteOffset": 103988,
      "byteLength": 3276,
      "target": 34962,
      "byteStride": 4,
      "extensions": {
        "EXT_meshopt_compression": {
          "buffer": 0,
          "byteOffset": 61124,
          "byteLength": 2312,
          "mode": "ATTRIBUTES",
          "byteStride": 4,
          "count": 819
        }
      }
    },
    {
      "buffer": 1,
      "byteOffset": 107264,
      "byteLength": 14080,
      "target": 34962,
      "byteStride": 8,
      "extensions": {
        "EXT_meshopt_compression": {
          "buffer": 0,
          "byteOffset": 63436,
          "byteLength": 8017,
          "mode": "ATTRIBUTES",
          "byteStride": 8,
          "count": 1760
        }
      }
    },
    {
      "buffer": 1,
      "byteOffset": 121344,
      "byteLength": 7040,
      "target": 34962,
      "byteStride": 4,
      "extensions": {
        "EXT_meshopt_compression": {
          "buffer": 0,
          "byteOffset": 71456,
          "byteLength": 5939,
          "mode": "ATTRIBUTES",
          "byteStride": 4,
          "count": 1760
        }
      }
    },
    {
      "buffer": 1,
      "byteOffset": 128384,
      "byteLength": 3664,
      "target": 34962,
      "byteStride": 8,
      "extensions": {
        "EXT_meshopt_compression": {
          "buffer": 0,
          "byteOffset": 77396,
          "byteLength": 2148,
          "mode": "ATTRIBUTES",
          "byteStride": 8,
          "count": 458
        }
      }
    },
    {
      "buffer": 1,
      "byteOffset": 132048,
      "byteLength": 1832,
      "target": 34962,
      "byteStride": 4,
      "extensions": {
        "EXT_meshopt_compression": {
          "buffer": 0,
          "byteOffset": 79544,
          "byteLength": 1539,
          "mode": "ATTRIBUTES",
          "byteStride": 4,
          "count": 458
        }
      }
    },
    {
      "buffer": 1,
      "byteOffset": 133880,
      "byteLength": 3664,
      "target": 34962,
      "byteStride": 8,
      "extensions": {
        "EXT_meshopt_compression": {
          "buffer": 0,
          "byteOffset": 81084,
          "byteLength": 2148,
          "mode": "ATTRIBUTES",
          "byteStride": 8,
          "count": 458
        }
      }
    },
    {
      "buffer": 1,
      "byteOffset": 137544,
      "byteLength": 1832,
      "target": 34962,
      "byteStride": 4,
      "extensions": {
        "EXT_meshopt_compression": {
          "buffer": 0,
          "byteOffset": 83232,
          "byteLength": 1536,
          "mode": "ATTRIBUTES",
          "byteStride": 4,
          "count": 458
        }
      }
    },
    {
      "buffer": 1,
      "byteOffset": 139376,
      "byteLength": 6552,
      "target": 34962,
      "byteStride": 8,
      "extensions": {
        "EXT_meshopt_compression": {
          "buffer": 0,
          "byteOffset": 84768,
          "byteLength": 3851,
          "mode": "ATTRIBUTES",
          "byteStride": 8,
          "count": 819
        }
      }
    },
    {
      "buffer": 1,
      "byteOffset": 145928,
      "byteLength": 3276,
      "target": 34962,
      "byteStride": 4,
      "extensions": {
        "EXT_meshopt_compression": {
          "buffer": 0,
          "byteOffset": 88620,
          "byteLength": 2690,
          "mode": "ATTRIBUTES",
          "byteStride": 4,
          "count": 819
        }
      }
    }
  ],
  "samplers": [
    {
      "magFilter": 9729,
      "minFilter": 9987,
      "wrapS": 10497,
      "wrapT": 10497
    }
  ],
  "textures": [
    {
      "sampler": 0,
      "extensions": {
        "KHR_texture_basisu": {
          "source": 1
        }
      }
    },
    {
      "sampler": 0,
      "extensions": {
        "KHR_texture_basisu": {
          "source": 0
        }
      }
    },
    {
      "sampler": 0,
      "extensions": {
        "KHR_texture_basisu": {
          "source": 2
        }
      }
    }
  ],
  "images": [
    {
      "name": "GothicCommode_01_nor_gl",
      "mimeType": "image/ktx2",
      "uri": "textures/GothicCommode_01_nor_gl_1k.ktx2"
    },
    {
      "name": "GothicCommode_01_diff",
      "mimeType": "image/ktx2",
      "uri": "textures/GothicCommode_01_diff_1k.ktx2"
    },
    {
      "name": "GothicCommode_01_metallic-GothicCommode_01_roughness",
      "mimeType": "image/ktx2",
      "uri": "textures/GothicCommode_01_arm_1k.ktx2"
    }
  ],
  "buffers": [
    {
      "uri": "GothicCommode_01.bin",
      "byteLength": 91312
    },
    {
      "byteLength": 149204,
      "extensions": {
        "EXT_meshopt_compression": {
          "fallback": true
        }
      }
    }
  ],
  "materials": [
    {
      "name": "GothicCommode_01",
      "doubleSided": true,
      "pbrMetallicRoughness": {
        "baseColorTexture": {
          "index": 0
        },
        "metallicRoughnessTexture": {
          "index": 2
        }
      },
      "normalTexture": {
        "index": 1
      }
    }
  ],
  "meshes": [
    {
      "name": "Circle.003",
      "primitives": [
        {
          "attributes": {
            "NORMAL": 2,
            "POSITION": 16,
            "TEXCOORD_0": 17
          },
          "mode": 4,
          "material": 0,
          "indices": 0
        }
      ]
    },
    {
      "name": "Circle.005",
      "primitives": [
        {
          "attributes": {
            "NORMAL": 6,
            "POSITION": 18,
            "TEXCOORD_0": 19
          },
          "mode": 4,
          "material": 0,
          "indices": 4
        }
      ]
    },
    {
      "name": "Circle.006",
      "primitives": [
        {
          "attributes": {
            "NORMAL": 10,
            "POSITION": 20,
            "TEXCOORD_0": 21
          },
          "mode": 4,
          "material": 0,
          "indices": 8
        }
      ]
    },
    {
      "name": "Circle.007",
      "primitives": [
        {
          "attributes": {
            "NORMAL": 14,
            "POSITION": 22,
            "TEXCOORD_0": 23
          },
          "mode": 4,
          "material": 0,
          "indices": 12
        }
      ]
    }
  ],
  "nodes": [
    {
      "name": "GothicCommode_01",
      "translation": [
        -0.00107574462890625,
        0.6060212725233916,
        0.001229405403137207
      ],
      "scale": [
        0.6060212975907442,
        0.6060212975907442,
        0.6060212975907442
      ],
      "mesh": 0
    },
    {
      "name": "GothicCommode_01_door03",
      "translation": [
        -0.0013021087506785989,
        0.3562934622168541,
        0.0055235552962535905
      ],
      "scale": [
        0.5005368590354919,
        0.5005368590354919,
        0.5005368590354919
      ],
      "mesh": 1
    },
    {
      "name": "GothicCommode_01_door02",
      "translation": [
        -0.0013025832595303655,
        0.6667963266372681,
        -0.013735390884091814
      ],
      "scale": [
        0.5005367398262024,
        0.5005367398262024,
        0.5005367398262024
      ],
      "mesh": 2
    },
    {
      "name": "GothicCommode_01_door01",
      "translation": [
        -0.0013029303518123925,
        0.9861450493335724,
        0.0009558949049246479
      ],
      "scale": [
        0.5005367696285248,
        0.5005367696285248,
        0.5005367696285248
      ],
      "mesh": 3
    }
  ],
  "scenes": [
    {
      "name": "Scene",
      "nodes": [
        0,
        1,
        2,
        3
      ]
    }
  ],
  "scene": 0,
  "extensionsUsed": [
    "EXT_meshopt_compression",
    "KHR_mesh_quantization",
    "KHR_texture_basisu"
  ],
  "extensionsRequired": [
    "EXT_meshopt_compression",
    "KHR_mesh_quantization",
    "KHR_texture_basisu"
  ]
}