{
  "asset": {
    "generator": "glTF-Transform v4.5.0",
    "version": "2.0"
  },
  "accessors": [
    {
      "type": "SCALAR",
      "componentType": 5123,
      "count": 83217,
      "normalized": false,
      "byteOffset": 0,
      "bufferView": 0
    },
    {
      "type": "VEC3",
      "componentType": 5126,
      "count": 23314,
      "normalized": false,
      "byteOffset": 0,
      "bufferView": 1
    },
    {
      "type": "VEC3",
      "componentType": 5120,
      "count": 23314,
      "normalized": true,
      "byteOffset": 0,
      "bufferView": 2
    },
    {
      "type": "VEC2",
      "componentType": 5126,
      "count": 23314,
      "normalized": false,
      "byteOffset": 0,
      "bufferView": 3
    },
    {
      "type": "VEC3",
      "componentType": 5122,
      "count": 23314,
      "max": [
        27827,
        32767,
        29451
      ],
      "min": [
        -27827,
        -32767,
        -29451
      ],
      "normalized": true,
      "byteOffset": 0,
      "bufferView": 4
    },
    {
      "type": "VEC2",
      "componentType": 5123,
      "count": 23314,
      "normalized": true,
      "byteOffset": 0,
      "bufferView": 5
    }
  ],
  "bufferViews": [
    {
      "buffer": 1,
      "byteOffset": 0,
      "byteLength": 166434,
      "target": 34963,
      "extensions": {
        "EXT_meshopt_compression": {
          "buffer": 0,
          "byteOffset": 0,
          "byteLength": 30197,
          "mode": "TRIANGLES",
          "byteStride": 2,
          "count": 83217
        }
      }
    },
    {
      "buffer": 1,
      "byteOffset": 166436,
      "byteLength": 279768,
      "extensions": {
        "EXT_meshopt_compression": {
          "buffer": 0,
          "byteOffset": 30200,
          "byteLength": 206709,
          "mode": "ATTRIBUTES",
          "byteStride": 12,
          "count": 23314
        }
      }
    },
    {
      "buffer": 1,
      "byteOffset": 446204,
      "byteLength": 93256,
      "target": 34962,
      "byteStride": 4,
      "extensions": {
        "EXT_meshopt_compression": {
          "buffer": 0,
          "byteOffset": 236912,
          "byteLength": 65656,
          "mode": "ATTRIBUTES",
          "byteStride": 4,
          "count": 23314
        }
      }
    },
    {
      "buffer": 1,
      "byteOffset": 539460,
      "byteLength": 186512,
      "extensions": {
        "EXT_meshopt_compression": {
          "buffer": 0,
          "byteOffset": 302568,
          "byteLength": 127184,
          "mode": "ATTRIBUTES",
          "byteStride": 8,
          "count": 23314
        }
      }
    },
    {
      "buffer": 1,
      "byteOffset": 725972,
      "byteLength": 186512,
      "target": 34962,
      "byteStride": 8,
      "extensions": {
        "EXT_meshopt_compression": {
          "buffer": 0,
          "byteOffset": 429752,
          "byteLength": 107011,
          "mode": "ATTRIBUTES",
          "byteStride": 8,
          "count": 23314
        }
      }
    },
    {
      "buffer": 1,
      "byteOffset": 912484,
      "byteLength": 93256,
      "target": 34962,
      "byteStride": 4,
      "extensions": {
        "EXT_meshopt_compression": {
          "buffer": 0,
          "byteOffset": 536764,
          "byteLength": 68900,
          "mode": "ATTRIBUTES",
          "byteStride": 4,
          "count": 23314
        }
      }
    }
  ],
  "samplers": [
    {
      "magFilter": 9729,
      "minFilter": 9987,
      "wrapS": 10497,
      "wrapT": 10497
    }
  ],
  "textures": [
    {
      "sampler": 0,
      "extensions": {
        "KHR_texture_basisu": {
          "source": 1
        }
      }
    },
    {
      "sampler": 0,
      "extensions": {
        "KHR_texture_basisu": {
          "source": 0
        }
      }
    },
    {
      "sampler": 0,
      "extensions": {
        "KHR_texture_basisu": {
          "source": 2
        }
      }
    }
  ],
  "images": [
    {
      "name": "gothic_statue_nor_gl",
      "mimeType": "image/ktx2",
      "uri": "textures/gothic_statue_nor_gl_1k.ktx2"
    },
    {
      "name": "gothic_statue_diff",
      "mimeType": "image/ktx2",
      "uri": "textures/gothic_statue_diff_1k.ktx2"
    },
    {
      "name": "gothic_statue_rough",
      "mimeType": "image/ktx2",
      "uri": "textures/gothic_statue_arm_1k.ktx2"
    }
  ],
  "buffers": [
    {
      "uri": "gothic_statue.bin",
      "byteLength": 605664
    },
    {
      "byteLength": 1005740,
      "extensions": {
        "EXT_meshopt_compression": {
          "fallback": true
        }
      }
    }
  ],
  "materials": [
    {
      "name": "gothic_statue",
      "doubleSided": true,
      "pbrMetallicRoughness": {
        "metallicFactor": 0,
        "baseColorTexture": {
          "index": 0
        },
        "metallicRoughnessTexture": {
          "index": 2
        }
      },
      "normalTexture": {
        "index": 1
      }
    }
  ],
  "meshes": [
    {
      "name": "Plane",
      "primitives": [
        {
          "attributes": {
            "NORMAL": 2,
            "POSITION": 4,
            "TEXCOORD_0": 5
          },
          "mode": 4,
          "material": 0,
          "indices": 0
        }
      ]
    }
  ],
  "nodes": [
    {
      "name": "gothic_statue",
      "translation": [
        -0.04446549341082573,
        0.8540286123752594,
        -0.40750953182578087
      ],
      "scale": [
        0.8699488937854767,
        0.8699488937854767,
        0.8699488937854767
      ],
      "mesh": 0
    }
  ],
  "scenes": [
    {
      "name": "Scene",
      "nodes": [
        0
      ]
    }
  ],
  "scene": 0,
  "extensionsUsed": [
    "EXT_meshopt_compression",
    "KHR_mesh_quantization",
    "KHR_texture_basisu"
  ],
  "extensionsRequired": [
    "EXT_meshopt_compression",
    "KHR_mesh_quantization",
    "KHR_texture_basisu"
  ]
}